<svg width="155" height="112" viewBox="0 0 155 112" fill="none" xmlns="http://www.w3.org/2000/svg">
<g filter="url(#filter0_di_3098_11993)">
<g clip-path="url(#clip0_3098_11993)">
<rect x="8" y="8.33252" width="138.505" height="95" rx="15.9813" fill="#665EDE"/>
<rect x="144.619" y="10.1084" width="81.8252" height="111.215" transform="rotate(32.8992 144.619 10.1084)" fill="black"/>
<rect x="114.807" y="-21.2061" width="42.1027" height="160.56" transform="rotate(32.8992 114.807 -21.2061)" fill="#2D296E"/>
<rect x="40.6094" y="-52.8218" width="60.7327" height="142.628" transform="rotate(32.8992 40.6094 -52.8218)" fill="#EDECFE"/>
<path d="M28.5622 27.726H27.1423V24.6833H23.8562V27.726H20.8946L25.4181 18.8008H21.9292L17.4057 27.726V30.7281H23.8562V33H27.1423V30.7281H28.5622V27.726ZM32.0675 18.8008L28.3554 20.1396L29.1465 22.9186L31.6618 22.2289V33H34.9073V18.8008H32.0675ZM45.5227 25.5961C46.3543 24.947 46.8817 24.0139 46.8817 22.736C46.8817 19.9773 44.7722 18.5168 42.1554 18.5168C39.5387 18.5168 37.4291 19.9773 37.4291 22.736C37.4291 24.0139 37.9565 24.947 38.7882 25.5961C37.5914 26.3669 36.9423 27.6043 36.9423 29.0039C36.9423 31.6004 38.8085 33.284 42.1554 33.284C45.5024 33.284 47.3686 31.6004 47.3686 29.0039C47.3686 27.6043 46.7195 26.3669 45.5227 25.5961ZM42.1554 21.5595C43.0682 21.5595 43.6362 22.1477 43.6362 22.9388C43.6362 23.7299 43.0682 24.3182 42.1554 24.3182C41.2426 24.3182 40.6747 23.7299 40.6747 22.9388C40.6747 22.1477 41.2426 21.5595 42.1554 21.5595ZM42.1554 30.2413C41.0195 30.2413 40.1878 29.6125 40.1878 28.5374C40.1878 27.4623 41.0195 26.8335 42.1554 26.8335C43.2914 26.8335 44.123 27.4623 44.123 28.5374C44.123 29.6125 43.2914 30.2413 42.1554 30.2413Z" fill="black"/>
<path d="M21.3183 45.0663C22.7529 45.0663 23.9971 44.3197 24.6266 43.1779L22.709 42.08C22.4748 42.5924 21.9331 42.8998 21.289 42.8998C20.3375 42.8998 19.6349 42.2118 19.6349 41.2017C19.6349 40.1917 20.3375 39.5037 21.289 39.5037C21.9331 39.5037 22.4601 39.8111 22.709 40.3234L24.6266 39.2109C23.9971 38.0838 22.7382 37.3372 21.3183 37.3372C19.0933 37.3372 17.4392 39.0206 17.4392 41.2017C17.4392 43.3829 19.0933 45.0663 21.3183 45.0663ZM30.681 37.5421V38.2301C30.198 37.6739 29.4807 37.3372 28.4999 37.3372C26.5823 37.3372 25.0014 39.0206 25.0014 41.2017C25.0014 43.3829 26.5823 45.0663 28.4999 45.0663C29.4807 45.0663 30.198 44.7296 30.681 44.1733V44.8613H32.8768V37.5421H30.681ZM28.9391 42.9876C27.929 42.9876 27.1971 42.2996 27.1971 41.2017C27.1971 40.1039 27.929 39.4159 28.9391 39.4159C29.9491 39.4159 30.681 40.1039 30.681 41.2017C30.681 42.2996 29.9491 42.9876 28.9391 42.9876ZM36.6835 38.845V37.5421H34.4877V44.8613H36.6835V41.5531C36.6835 40.1039 37.9716 39.7379 38.8792 39.8843V37.3958C37.957 37.3958 36.9762 37.8642 36.6835 38.845ZM45.0049 34.6145V38.2301C44.5218 37.6739 43.8046 37.3372 42.8238 37.3372C40.9062 37.3372 39.3252 39.0206 39.3252 41.2017C39.3252 43.3829 40.9062 45.0663 42.8238 45.0663C43.8046 45.0663 44.5218 44.7296 45.0049 44.1733V44.8613H47.2007V34.6145H45.0049ZM43.2629 42.9876C42.2529 42.9876 41.521 42.2996 41.521 41.2017C41.521 40.1039 42.2529 39.4159 43.2629 39.4159C44.273 39.4159 45.0049 40.1039 45.0049 41.2017C45.0049 42.2996 44.273 42.9876 43.2629 42.9876Z" fill="#2D296E"/>
</g>
</g>
<defs>
<filter id="filter0_di_3098_11993" x="0" y="0.33252" width="154.504" height="111" filterUnits="userSpaceOnUse" color-interpolation-filters="sRGB">
<feFlood flood-opacity="0" result="BackgroundImageFix"/>
<feColorMatrix in="SourceAlpha" type="matrix" values="0 0 0 0 0 0 0 0 0 0 0 0 0 0 0 0 0 0 127 0" result="hardAlpha"/>
<feOffset/>
<feGaussianBlur stdDeviation="4"/>
<feComposite in2="hardAlpha" operator="out"/>
<feColorMatrix type="matrix" values="0 0 0 0 0 0 0 0 0 0 0 0 0 0 0 0 0 0 0.25 0"/>
<feBlend mode="normal" in2="BackgroundImageFix" result="effect1_dropShadow_3098_11993"/>
<feBlend mode="normal" in="SourceGraphic" in2="effect1_dropShadow_3098_11993" result="shape"/>
<feColorMatrix in="SourceAlpha" type="matrix" values="0 0 0 0 0 0 0 0 0 0 0 0 0 0 0 0 0 0 127 0" result="hardAlpha"/>
<feOffset/>
<feGaussianBlur stdDeviation="0.665888"/>
<feComposite in2="hardAlpha" operator="arithmetic" k2="-1" k3="1"/>
<feColorMatrix type="matrix" values="0 0 0 0 0.4 0 0 0 0 0.368627 0 0 0 0 0.870588 0 0 0 1 0"/>
<feBlend mode="normal" in2="shape" result="effect2_innerShadow_3098_11993"/>
</filter>
<clipPath id="clip0_3098_11993">
<rect x="8" y="8.33252" width="138.505" height="95" rx="15.9813" fill="white"/>
</clipPath>
</defs>
</svg>
